<?xml version="1.0" encoding="UTF-8"?><svg id="Layer_1" xmlns="http://www.w3.org/2000/svg" viewBox="0 0 235.99 87.12"><defs><style>.cls-1{fill:#000093;}.cls-2{fill:#fff;}.cls-3{fill:#3535f3;}</style></defs><path class="cls-3" d="M192.42,0H43.56C19.5,0,0,19.5,0,43.56s19.5,43.56,43.56,43.56H192.42c24.06,0,43.56-19.5,43.56-43.56S216.48,0,192.42,0"/><path class="cls-1" d="M43.56,6.08h0c20.7,0,37.48,16.78,37.48,37.48s-16.78,37.48-37.48,37.48S6.08,64.26,6.08,43.56,22.86,6.08,43.56,6.08"/><path class="cls-2" d="M32.56,28.69h-1.25c-2.37,0-3.67,1.34-3.67,4.01v12.9c0,3.32-1.12,4.49-3.75,4.49-2.07,0-3.75-.91-5.09-2.55-.13-.17-2.85,1.12-2.85,4.31,0,3.45,3.23,5.56,9.23,5.56,7.29,0,11.13-3.67,11.13-11.69v-13.03c0-2.67-1.3-4.01-3.76-4.01m29.05,6.3c-7.08,0-11.78,4.49-11.78,11.18s4.53,11.26,11.65,11.26,11.73-4.4,11.73-11.22c0-6.73-4.61-11.22-11.6-11.22m-.09,16.09c-2.76,0-4.66-2.03-4.66-4.92s1.94-4.87,4.66-4.87,4.66,2.03,4.66,4.92c0,2.8-1.98,4.87-4.66,4.87h0Zm-17.67-15.87h-.86c-2.11,0-3.71,.99-3.71,4.01v13.8c0,3.06,1.55,4.01,3.8,4.01h.86c2.11,0,3.62-1.04,3.62-4.01v-13.8c0-3.11-1.47-4.01-3.71-4.01m-.47-10.01c-2.68,0-4.36,1.51-4.36,3.88s1.73,3.92,4.49,3.92,4.36-1.51,4.36-3.92-1.73-3.88-4.49-3.88"/><polygon class="cls-2" points="109.79 35.07 90.91 35.07 89.7 40.79 95.8 40.79 92.37 57.03 99.3 57.03 102.73 40.79 108.55 40.79 109.79 35.07"/><path class="cls-2" d="M120.72,57.03h7.25c.06-2.44,0-4.31-.18-5.62-.18-1.31-.5-2.28-.97-2.89-.47-.62-1.14-1.08-2-1.4v-.06c.91-.21,1.8-.57,2.67-1.08,.87-.51,1.59-1.21,2.18-2.1,.58-.89,.87-1.95,.87-3.18,0-1.14-.29-2.14-.87-2.99-.58-.85-1.43-1.5-2.54-1.96-1.11-.46-2.45-.68-4.02-.68h-11.19l-4.64,21.96h6.93l1.62-7.6h1.81c.57,0,1.07,.08,1.48,.24,.41,.16,.75,.38,1,.65,.32,.38,.54,.97,.67,1.76,.13,.79,.17,1.77,.13,2.94-.04,.72-.11,1.39-.19,2m-.67-11.89h-3.34l1.08-5.02h2.86c.95,0,1.68,.16,2.19,.49,.51,.33,.76,.87,.76,1.64,0,.57-.14,1.08-.41,1.51-.28,.43-.68,.77-1.21,1.02-.53,.24-1.18,.36-1.94,.36"/><path class="cls-2" d="M134.52,56.46c1.5,.72,3.44,1.08,5.82,1.08,2.2,0,4.03-.34,5.48-1.02,1.45-.68,2.61-1.67,3.47-2.99,.86-1.31,1.5-2.95,1.92-4.92l2.83-13.54h-6.93l-2.73,13c-.21,.98-.47,1.74-.76,2.3-.29,.56-.68,.97-1.14,1.22-.47,.25-1.05,.38-1.75,.38s-1.31-.14-1.76-.41c-.46-.27-.76-.7-.9-1.29-.15-.58-.13-1.32,.06-2.21l2.76-13h-6.93l-2.76,13c-.44,2.05-.38,3.79,.21,5.2,.58,1.41,1.62,2.47,3.13,3.19"/><polygon class="cls-2" points="173.46 40.28 174.58 35.07 156.97 35.07 152.33 57.03 170.57 57.03 171.68 51.82 160.37 51.82 161.07 48.48 170.83 48.48 171.88 43.65 162.09 43.65 162.82 40.28 173.46 40.28"/><path class="cls-2" d="M205.95,56.44c-1.54-.77-2.72-1.87-3.55-3.28-.83-1.41-1.24-3.05-1.24-4.91,0-2.59,.54-4.92,1.64-7,1.09-2.08,2.6-3.71,4.52-4.89,1.92-1.18,4.07-1.77,6.44-1.77,1.82,0,3.44,.29,4.83,.88,1.4,.58,2.52,1.47,3.36,2.66,.84,1.19,1.34,2.64,1.51,4.36h-6.68c-.17-.74-.52-1.32-1.05-1.72-.53-.4-1.24-.6-2.13-.6-1.06,0-1.99,.35-2.78,1.05-.79,.7-1.41,1.64-1.85,2.83-.44,1.19-.65,2.51-.65,3.98,0,.78,.14,1.49,.43,2.13,.29,.64,.72,1.13,1.31,1.48,.58,.35,1.3,.52,2.15,.52,.7,0,1.35-.14,1.94-.43,.59-.28,1.08-.7,1.46-1.26,.38-.55,.63-1.22,.73-2l2.7,.6h-6.81l.92-4.36h10.31l-.19,1.59c-.28,2.29-.91,4.29-1.91,5.98-1,1.7-2.34,3.01-4.02,3.93-1.69,.92-3.66,1.38-5.93,1.38-2.1,0-3.92-.39-5.46-1.16"/><path class="cls-2" d="M196.46,43.19c-.92-.51-1.99-.76-3.2-.76-.96,0-1.83,.12-2.61,.35-.78,.24-1.51,.57-2.19,1.02h-.1l1.18-3.57h9.51l1.08-5.12h-17.34l-.09,.27c1.34,.57,2.08,2.08,1.62,3.67-.08,.27-2.86,8.66-2.86,8.66h5.7c.4-.38,.84-.67,1.31-.86,.47-.19,1.04-.28,1.72-.28,.55,0,1.04,.1,1.45,.3,.41,.2,.73,.51,.94,.91,.21,.4,.32,.87,.32,1.4,0,.64-.13,1.2-.38,1.7-.25,.5-.63,.89-1.13,1.16-.5,.28-1.09,.41-1.77,.41-.89,0-1.6-.16-2.11-.48-.52-.32-.82-.76-.91-1.34h-6.33c-.11,1.36,.17,2.56,.83,3.59,.66,1.04,1.69,1.84,3.09,2.4,1.4,.56,3.13,.84,5.19,.84s3.77-.36,5.28-1.08c1.51-.72,2.67-1.73,3.5-3.04,.83-1.3,1.24-2.8,1.24-4.5,0-1.31-.25-2.46-.76-3.44-.51-.97-1.22-1.72-2.15-2.23"/></svg>