<svg width="133" height="51" viewBox="0 0 133 51" fill="none" xmlns="http://www.w3.org/2000/svg">
<path d="M108.449 0H24.5511C10.9903 0 0 11.2282 0 25.0778C0 38.9275 10.9924 50.1557 24.5511 50.1557H108.449C122.008 50.1557 133 38.9275 133 25.0778C133 11.2282 122.008 0 108.449 0Z" fill="#3535F3"/>
<path d="M24.5487 3.5C36.2163 3.5 45.6759 13.1605 45.6759 25.0805C45.6759 37.0006 36.2184 46.6589 24.5487 46.6589C12.879 46.6589 3.42151 36.9985 3.42151 25.0805C3.42151 13.1626 12.879 3.5 24.5487 3.5Z" fill="#000093"/>
<path d="M18.3497 16.5143H17.6455C16.3095 16.5143 15.5783 17.2844 15.5783 18.8225V26.2488C15.5783 28.1593 14.9466 28.8321 13.4635 28.8321C12.2974 28.8321 11.3487 28.3095 10.5948 27.3659C10.5223 27.2664 8.99158 28.0112 8.99158 29.8498C8.99158 31.8364 10.8143 33.053 14.1947 33.053C18.3021 33.053 20.4666 30.9415 20.4666 26.3228V18.8225C20.4645 17.2844 19.7354 16.5143 18.3497 16.5143ZM34.7233 20.1406C30.7361 20.1406 28.0848 22.724 28.0848 26.5746C28.0848 30.4252 30.6366 33.0572 34.6487 33.0572C38.6608 33.0572 41.2603 30.5247 41.2603 26.6C41.2624 22.724 38.6608 20.1406 34.7233 20.1406ZM34.6736 29.4033C33.116 29.4033 32.0472 28.2354 32.0472 26.5725C32.0472 24.9095 33.1429 23.767 34.6736 23.767C36.2043 23.767 37.3 24.9349 37.3 26.5979C37.3 28.2122 36.1815 29.4033 34.6756 29.4033H34.6736ZM24.7148 20.2633H24.228C23.037 20.2633 22.1381 20.8346 22.1381 22.5737V30.5204C22.1381 32.2828 23.0142 32.8308 24.2777 32.8308H24.7645C25.9555 32.8308 26.8068 32.2342 26.8068 30.5204V22.5737C26.8068 20.7859 25.9804 20.2633 24.7169 20.2633M24.4497 14.5022C22.9418 14.5022 21.9931 15.3718 21.9931 16.7385C21.9931 18.1053 22.9666 18.9981 24.5222 18.9981C26.0777 18.9981 26.9787 18.1286 26.9787 16.7385C26.9787 15.3485 26.0052 14.5022 24.4497 14.5022Z" fill="white"/>
<path d="M61.8737 20.1877H51.2335L50.5541 23.4819H53.9924L52.0578 32.8293H55.9622L57.8968 23.4819H61.1736L61.8737 20.1877Z" fill="white"/>
<path d="M68.0359 32.8292H72.1205C72.1557 31.4265 72.1226 30.3474 72.0211 29.5921C71.9196 28.8347 71.7373 28.2825 71.4763 27.927C71.2133 27.5716 70.8363 27.305 70.3475 27.1209V27.085C70.8612 26.9623 71.3645 26.7549 71.8533 26.4629C72.3421 26.1688 72.7502 25.7669 73.0795 25.2549C73.4089 24.7429 73.5725 24.1314 73.5725 23.4247C73.5725 22.7667 73.4089 22.1934 73.0795 21.7046C72.7523 21.2159 72.2738 20.8414 71.6462 20.5791C71.0186 20.3167 70.2646 20.1855 69.3823 20.1855H63.0772L60.4633 32.8271H64.3677L65.2811 28.4539H66.3022C66.6254 28.4539 66.9029 28.5004 67.1349 28.5914C67.3669 28.6845 67.5554 28.8093 67.6983 28.9659C67.8785 29.1859 68.0028 29.5244 68.0753 29.9814C68.1457 30.4384 68.1706 31.0033 68.1457 31.674C68.1208 32.0887 68.0856 32.4716 68.038 32.8271M67.6631 25.9848H65.7823L66.3913 23.0947H68.0028C68.5392 23.0947 68.9514 23.1878 69.2393 23.3782C69.5252 23.5665 69.6681 23.8817 69.6681 24.3197C69.6681 24.6497 69.5915 24.9396 69.4361 25.1893C69.2808 25.4389 69.0529 25.6336 68.7547 25.7732C68.4564 25.9128 68.0918 25.9827 67.661 25.9827" fill="white"/>
<path d="M75.8137 32.4991C76.6608 32.9137 77.7545 33.1211 79.0925 33.1211C80.3353 33.1211 81.3627 32.9243 82.1808 32.535C82.999 32.1457 83.6494 31.5724 84.1341 30.8149C84.6188 30.0596 84.9771 29.1139 85.2174 27.9798L86.8122 20.1855H82.9079L81.3668 27.6688C81.2467 28.2295 81.1038 28.6717 80.936 28.9954C80.7703 29.3191 80.5549 29.5518 80.2918 29.6999C80.0288 29.8459 79.7015 29.9179 79.3059 29.9179C78.9103 29.9179 78.5685 29.8396 78.3117 29.6788C78.0548 29.5201 77.885 29.2747 77.8021 28.9383C77.7193 28.604 77.7296 28.1787 77.8394 27.6667L79.397 20.1833H75.4926L73.935 27.6667C73.6844 28.8494 73.7217 29.8459 74.051 30.6584C74.3783 31.4708 74.9665 32.0823 75.8137 32.4969" fill="white"/>
<path d="M97.7608 23.1879L98.3884 20.1877H88.4648L85.8508 32.8293H96.1327L96.7583 29.8292H90.3828L90.7764 27.9081H96.2757L96.866 25.128H91.3501L91.7602 23.1879H97.7608Z" fill="white"/>
<path d="M116.069 32.4909C115.203 32.0445 114.536 31.4161 114.07 30.6037C113.604 29.7933 113.372 28.8497 113.372 27.7749C113.372 26.2854 113.679 24.942 114.294 23.7466C114.909 22.5491 115.758 21.6118 116.84 20.9347C117.923 20.2577 119.133 19.9192 120.473 19.9192C121.5 19.9192 122.409 20.0884 123.196 20.4227C123.986 20.7591 124.615 21.269 125.09 21.9524C125.562 22.6358 125.846 23.4715 125.941 24.4617H122.175C122.08 24.0343 121.881 23.7042 121.583 23.4715C121.285 23.2409 120.885 23.1245 120.382 23.1245C119.783 23.1245 119.261 23.3255 118.814 23.7275C118.366 24.1316 118.018 24.6733 117.774 25.3588C117.529 26.0421 117.405 26.8059 117.405 27.648C117.405 28.0986 117.486 28.5091 117.647 28.8751C117.809 29.2411 118.056 29.5246 118.383 29.7277C118.71 29.9287 119.116 30.0282 119.592 30.0282C119.988 30.0282 120.353 29.9457 120.686 29.7806C121.02 29.6177 121.295 29.3744 121.51 29.0571C121.726 28.7397 121.863 28.3546 121.923 27.904L123.445 28.251H119.609L120.129 25.7417H125.939L125.833 26.6578C125.678 27.9759 125.317 29.1248 124.756 30.1022C124.195 31.0776 123.439 31.8329 122.488 32.364C121.537 32.895 120.423 33.1616 119.143 33.1616C117.96 33.1616 116.935 32.9373 116.069 32.493" fill="white"/>
<path d="M110.725 24.8627C110.205 24.5707 109.604 24.4226 108.923 24.4226C108.384 24.4226 107.894 24.4903 107.452 24.6236C107.011 24.759 106.599 24.9537 106.216 25.2097H106.162L106.825 23.1574H112.187L112.796 20.2102H103.022L102.972 20.3646C103.724 20.6926 104.142 21.56 103.886 22.4804C103.842 22.6348 102.272 27.4651 102.272 27.4651H105.483C105.708 27.245 105.955 27.08 106.218 26.97C106.481 26.8621 106.802 26.8071 107.185 26.8071C107.496 26.8071 107.769 26.8663 108.001 26.9806C108.235 27.0969 108.411 27.2704 108.531 27.5032C108.652 27.7338 108.712 28.0046 108.712 28.3071C108.712 28.6732 108.639 29.0011 108.496 29.2888C108.353 29.5745 108.14 29.7987 107.86 29.9574C107.579 30.1161 107.247 30.1965 106.864 30.1965C106.363 30.1965 105.963 30.1055 105.673 29.9214C105.379 29.7374 105.209 29.4814 105.161 29.1513H101.593C101.533 29.932 101.688 30.6218 102.059 31.2205C102.429 31.8193 103.009 32.2805 103.799 32.6042C104.586 32.9279 105.561 33.0887 106.721 33.0887C107.881 33.0887 108.848 32.8814 109.696 32.4667C110.545 32.0499 111.203 31.4681 111.669 30.717C112.136 29.9659 112.368 29.1027 112.368 28.1252C112.368 27.3699 112.225 26.7098 111.937 26.147C111.651 25.5863 111.247 25.1589 110.727 24.8648" fill="white"/>
</svg>
